# xmcd CD database file
#
# Track frame offsets:
#	150
#	590
#	25230
#	45037
#	66800
#	95265
#	113722
#	146030
#	175940
#	195907
#	219522
#	245112
#	273170
#
# Disc length: 4037 seconds
#
# Revision: 0
# Processed by: cddbd v1.5.2PL0 Copyright (c) Steve Scherf et al.
# Submitted via: CDex 1.81
#
DISCID=a60fc30d
DTITLE=Slaughter House Seven - Very Alive at the Redan
DYEAR=1992
DGENRE=Jazz
TTITLE0=Intro
TTITLE1=Tuxedo Junction
TTITLE2=Royal Garden Blues
TTITLE3=On the Sunny Side of the Street
TTITLE4=St. James Infirmary Blues
TTITLE5=One O'Clock Jump
TTITLE6=Creole Love Call
TTITLE7=Tin Roof Blues
TTITLE8=I Can't Give You Anything but Love
TTITLE9=Basin Street Blues
TTITLE10=Blues in the Night
TTITLE11=Jumpin' at the Woodside
TTITLE12=A Nightingale Sang in Berkely Square
EXTD=YEAR: 1992
EXTT0=
EXTT1=
EXTT2=
EXTT3=
EXTT4=
EXTT5=
EXTT6=
EXTT7=
EXTT8=
EXTT9=
EXTT10=
EXTT11=
EXTT12=
PLAYORDER=
